<?xml version="1.0" encoding="UTF-8" standalone="no"?>
<svg width="26px" height="22px" viewBox="0 0 26 22" version="1.1" xmlns="http://www.w3.org/2000/svg" xmlns:xlink="http://www.w3.org/1999/xlink">
    <!-- Generator: Sketch 39.1 (31720) - http://www.bohemiancoding.com/sketch -->
    <title>icon Text</title>
    <desc>Created with Sketch.</desc>
    <defs></defs>
    <g id="Page-1" stroke="none" stroke-width="1" fill="none" fill-rule="evenodd">
        <g id="et-DOKU-Icons-und-Buttons" transform="translate(-271.000000, -295.000000)" fill="#FFFFFF">
            <g id="BTN-LAYER-ARTICLE" transform="translate(260.000000, 282.000000)">
                <path d="M11,30 L37,30 L37,28 L11,28 L11,30 L11,30 Z M11,25 L37,25 L37,23 L11,23 L11,25 L11,25 Z M11,20 L37,20 L37,18 L11,18 L11,20 L11,20 Z M11,15 L37,15 L37,13 L11,13 L11,15 L11,15 Z M11,35 L29,35 L29,33 L11,33 L11,35 L11,35 Z" id="icon-Text"></path>
            </g>
        </g>
    </g>
</svg>