<?xml version="1.0" encoding="UTF-8" standalone="no"?>
<svg width="22px" height="22px" viewBox="0 0 22 22" version="1.1" xmlns="http://www.w3.org/2000/svg" xmlns:xlink="http://www.w3.org/1999/xlink">
    <!-- Generator: Sketch 40.3 (33839) - http://www.bohemiancoding.com/sketch -->
    <title>icon-metanavi-hi-instagram</title>
    <desc>Created with Sketch.</desc>
    <defs></defs>
    <g id="Page-1" stroke="none" stroke-width="1" fill="none" fill-rule="evenodd">
        <g id="et-header-meta-hover" transform="translate(-663.000000, -95.000000)" fill="#64A0F3">
            <g id="HEADER" transform="translate(180.000000, 83.000000)">
                <g id="META-SOCIAL" transform="translate(401.000000, 12.000000)">
                    <path d="M97.0930233,11 C97.0930233,8.73937209 95.2603721,6.90697674 93,6.90697674 C90.7391163,6.90697674 88.9069767,8.73937209 88.9069767,11 C88.9069767,13.2606279 90.7391163,15.0930233 93,15.0930233 C95.2603721,15.0930233 97.0930233,13.2606279 97.0930233,11 L97.0930233,11 Z M102.242814,4.24651163 C102.242814,4.58444186 101.967047,4.86046512 101.629116,4.86046512 L99.787,4.86046512 C99.4498372,4.86046512 99.1730465,4.58444186 99.1730465,4.24651163 L99.1730465,2.40465116 C99.1730465,2.06672093 99.4498372,1.79069767 99.787,1.79069767 L101.629116,1.79069767 C101.967047,1.79069767 102.242814,2.06672093 102.242814,2.40465116 L102.242814,4.24651163 Z M100.562628,0 L85.4373721,0 C83.5379535,0 82,1.53948837 82,3.43762791 L82,7.1627907 L87.5685581,7.1627907 C88.773186,5.46086047 90.7562558,4.34883721 93,4.34883721 C95.2434884,4.34883721 97.2263023,5.46086047 98.4306744,7.1627907 L104,7.1627907 L104,3.43762791 C104,1.53948837 102.46,0 100.562628,0 L100.562628,0 Z M99.6511628,11 C99.6511628,14.6737442 96.6727209,17.6511628 93,17.6511628 C89.3262558,17.6511628 86.3488372,14.6737442 86.3488372,11 C86.3488372,10.5623023 86.3923256,10.1348372 86.4726512,9.72093023 L82,9.72093023 L82,18.5626279 C82,20.4610233 83.5379535,22 85.4373721,22 L100.562628,22 C102.46,22 104,20.4610233 104,18.5626279 L104,9.72093023 L99.5268372,9.72093023 C99.6076744,10.1348372 99.6511628,10.5623023 99.6511628,11 L99.6511628,11 Z" id="icon-metanavi-hi-instagram"></path>
                </g>
            </g>
        </g>
    </g>
</svg>