<?xml version="1.0" encoding="UTF-8" standalone="no"?>
<svg width="27px" height="22px" viewBox="0 0 27 22" version="1.1" xmlns="http://www.w3.org/2000/svg" xmlns:xlink="http://www.w3.org/1999/xlink">
    <!-- Generator: Sketch 40.3 (33839) - http://www.bohemiancoding.com/sketch -->
    <title>icon-metanavi.twitter</title>
    <desc>Created with Sketch.</desc>
    <defs></defs>
    <g id="Page-1" stroke="none" stroke-width="1" fill="none" fill-rule="evenodd">
        <g id="et-header-default" transform="translate(-708.000000, -95.000000)" fill="#A2A2A2">
            <g id="HEADER" transform="translate(180.000000, 83.000000)">
                <g id="META-SOCIAL" transform="translate(401.000000, 12.000000)">
                    <path d="M150.880216,3.47884122 C152.027472,2.79148834 152.907848,1.70278729 153.322732,0.406056067 C152.249331,1.04221057 151.060587,1.5047614 149.795929,1.75369142 C148.782554,0.67411192 147.338995,0 145.741841,0 C142.674647,0 140.187995,2.48665204 140.187995,5.55355232 C140.187995,5.98903274 140.236839,6.41274342 140.33188,6.81909373 C135.716376,6.58781832 131.62286,4.37657822 128.884336,1.01631714 C128.40619,1.83696234 128.132249,2.79089985 128.132249,3.80868821 C128.132249,5.73539482 129.112669,7.43494543 130.602718,8.43125401 C129.692917,8.40241815 128.83608,8.15289964 128.08723,7.73683929 C128.086641,7.75979028 128.086641,7.78303552 128.086641,7.80657501 C128.086641,10.4974321 130.001578,12.7422159 132.541783,13.25214 C132.076289,13.3792532 131.585491,13.4475177 131.07851,13.4475177 C130.721004,13.4475177 130.373502,13.4125027 130.033945,13.3477691 C130.740718,15.5540071 132.792478,17.1599882 135.222047,17.204419 C133.320939,18.6944682 130.926974,19.5822009 128.324684,19.5822009 C127.876551,19.5822009 127.434598,19.555719 127,19.5039322 C129.457522,21.0801947 132.376123,22 135.513642,22 C145.7286,22 151.315402,13.5366734 151.315402,6.19735716 C151.315402,5.95725444 151.310106,5.71744597 151.299219,5.47881447 C152.384389,4.69612669 153.325674,3.7180612 154.070404,2.60405521 C153.073802,3.04600899 152.003932,3.34437192 150.880216,3.47884122 Z" id="icon-metanavi.twitter"></path>
                </g>
            </g>
        </g>
    </g>
</svg>